<svg xmlns="http://www.w3.org/2000/svg" viewBox="0 0 500 500"><g id="freepik--background-complete--inject-431"><rect x="416.78" y="398.49" width="33.12" height="0.25" style="fill:#ebebeb"></rect><rect x="322.53" y="401.21" width="8.69" height="0.25" style="fill:#ebebeb"></rect><rect x="396.59" y="389.21" width="19.19" height="0.25" style="fill:#ebebeb"></rect><rect x="52.46" y="390.89" width="43.19" height="0.25" style="fill:#ebebeb"></rect><rect x="104.56" y="390.89" width="6.33" height="0.25" style="fill:#ebebeb"></rect><rect x="131.47" y="395.11" width="93.68" height="0.25" style="fill:#ebebeb"></rect><path d="M238.4,337.8H45.3a5.71,5.71,0,0,1-5.71-5.71V60.66A5.71,5.71,0,0,1,45.3,55H238.4a5.71,5.71,0,0,1,5.71,5.71V332.09A5.71,5.71,0,0,1,238.4,337.8ZM45.3,55.2a5.47,5.47,0,0,0-5.46,5.46V332.09a5.47,5.47,0,0,0,5.46,5.46H238.4a5.47,5.47,0,0,0,5.46-5.46V60.66a5.47,5.47,0,0,0-5.46-5.46Z" style="fill:#ebebeb"></path><path d="M454.7,337.8H261.6a5.71,5.71,0,0,1-5.71-5.71V60.66A5.71,5.71,0,0,1,261.6,55H454.7a5.71,5.71,0,0,1,5.71,5.71V332.09A5.71,5.71,0,0,1,454.7,337.8ZM261.6,55.2a5.47,5.47,0,0,0-5.46,5.46V332.09a5.47,5.47,0,0,0,5.46,5.46H454.7a5.47,5.47,0,0,0,5.46-5.46V60.66a5.47,5.47,0,0,0-5.46-5.46Z" style="fill:#ebebeb"></path><rect y="382.4" width="500" height="0.25" style="fill:#ebebeb"></rect><rect x="153.02" y="256.67" width="42.22" height="123.8" transform="translate(348.26 637.15) rotate(180)" style="fill:#ebebeb"></rect><rect x="189.92" y="140.77" width="42.22" height="239.71" transform="translate(422.07 521.24) rotate(180)" style="fill:#f5f5f5"></rect><rect x="220.41" y="164.3" width="4.32" height="5.5" transform="translate(445.13 334.1) rotate(180)" style="fill:#fff"></rect><rect x="197.35" y="164.3" width="4.32" height="5.5" transform="translate(399.01 334.1) rotate(180)" style="fill:#fff"></rect><rect x="220.41" y="182.11" width="4.32" height="5.5" transform="translate(445.13 369.71) rotate(180)" style="fill:#fff"></rect><rect x="208.88" y="182.11" width="4.32" height="5.5" transform="translate(422.07 369.71) rotate(180)" style="fill:#fff"></rect><rect x="197.35" y="199.92" width="4.32" height="5.5" transform="translate(399.01 405.33) rotate(180)" style="fill:#fff"></rect><rect x="220.41" y="217.73" width="4.32" height="5.5" transform="translate(445.13 440.95) rotate(180)" style="fill:#fff"></rect><rect x="208.88" y="217.73" width="4.32" height="5.5" transform="translate(422.07 440.95) rotate(180)" style="fill:#fff"></rect><rect x="208.88" y="235.53" width="4.32" height="5.5" transform="translate(422.07 476.56) rotate(180)" style="fill:#fff"></rect><rect x="197.35" y="235.53" width="4.32" height="5.5" transform="translate(399.01 476.56) rotate(180)" style="fill:#fff"></rect><rect x="208.88" y="253.34" width="4.32" height="5.5" transform="translate(422.07 512.18) rotate(180)" style="fill:#fff"></rect><rect x="197.35" y="253.34" width="4.32" height="5.5" transform="translate(399.01 512.18) rotate(180)" style="fill:#fff"></rect><rect x="197.35" y="271.15" width="4.32" height="5.5" transform="translate(399.01 547.8) rotate(180)" style="fill:#fff"></rect><rect x="208.88" y="288.96" width="4.32" height="5.5" transform="translate(422.07 583.41) rotate(180)" style="fill:#fff"></rect><rect x="109.75" y="157.87" width="46.89" height="222.6" transform="translate(266.38 538.35) rotate(180)" style="fill:#f5f5f5"></rect><rect x="109.75" y="169.8" width="46.89" height="4.58" style="fill:#e6e6e6"></rect><rect x="109.75" y="182.57" width="46.89" height="4.58" style="fill:#e6e6e6"></rect><rect x="109.75" y="195.34" width="46.89" height="4.58" style="fill:#e6e6e6"></rect><rect x="109.75" y="208.1" width="46.89" height="4.58" style="fill:#e6e6e6"></rect><rect x="109.75" y="220.87" width="46.89" height="4.58" style="fill:#e6e6e6"></rect><rect x="109.75" y="233.64" width="46.89" height="4.58" style="fill:#e6e6e6"></rect><rect x="109.75" y="246.41" width="46.89" height="4.58" style="fill:#e6e6e6"></rect><rect x="109.75" y="259.18" width="46.89" height="4.58" style="fill:#e6e6e6"></rect><rect x="109.75" y="271.95" width="46.89" height="4.58" style="fill:#e6e6e6"></rect><rect x="109.75" y="284.72" width="46.89" height="4.58" style="fill:#e6e6e6"></rect><rect x="109.75" y="297.49" width="46.89" height="4.58" style="fill:#e6e6e6"></rect><rect x="109.75" y="310.26" width="46.89" height="4.58" style="fill:#e6e6e6"></rect><rect x="109.75" y="323.03" width="46.89" height="4.58" style="fill:#e6e6e6"></rect><rect x="109.75" y="335.8" width="46.89" height="4.58" style="fill:#e6e6e6"></rect><rect x="109.75" y="348.57" width="46.89" height="4.58" style="fill:#e6e6e6"></rect><rect x="109.75" y="361.34" width="46.89" height="4.58" style="fill:#e6e6e6"></rect><rect x="69.92" y="225.67" width="46.89" height="154.81" transform="translate(186.73 606.15) rotate(180)" style="fill:#f0f0f0"></rect><rect x="79.67" y="235.53" width="4.32" height="5.5" style="fill:#fff"></rect><rect x="102.73" y="235.53" width="4.32" height="5.5" style="fill:#fff"></rect><rect x="79.67" y="253.34" width="4.32" height="5.5" style="fill:#fff"></rect><rect x="91.2" y="253.34" width="4.32" height="5.5" style="fill:#fff"></rect><rect x="102.73" y="271.15" width="4.32" height="5.5" style="fill:#fff"></rect><rect x="79.67" y="288.96" width="4.32" height="5.5" style="fill:#fff"></rect><rect x="91.2" y="288.96" width="4.32" height="5.5" style="fill:#fff"></rect><rect x="91.2" y="306.77" width="4.32" height="5.5" style="fill:#fff"></rect><rect x="102.73" y="306.77" width="4.32" height="5.5" style="fill:#fff"></rect><rect x="91.2" y="324.57" width="4.32" height="5.5" style="fill:#fff"></rect><rect x="102.73" y="324.57" width="4.32" height="5.5" style="fill:#fff"></rect><rect x="102.73" y="342.38" width="4.32" height="5.5" style="fill:#fff"></rect><rect x="91.2" y="360.19" width="4.32" height="5.5" style="fill:#fff"></rect><rect x="329.97" y="244.73" width="42.94" height="135.75" transform="translate(702.89 625.21) rotate(180)" style="fill:#e0e0e0"></rect><rect x="408.07" y="304.98" width="38.67" height="75.5" transform="translate(854.82 685.46) rotate(180)" style="fill:#ebebeb"></rect><rect x="372.92" y="234.3" width="38.67" height="146.18" transform="translate(784.51 614.78) rotate(180)" style="fill:#f5f5f5"></rect><rect x="400.84" y="248.65" width="3.96" height="3.35" transform="translate(805.63 500.65) rotate(180)" style="fill:#fff"></rect><rect x="379.71" y="248.65" width="3.96" height="3.35" transform="translate(763.39 500.65) rotate(180)" style="fill:#fff"></rect><rect x="400.84" y="259.51" width="3.96" height="3.35" transform="translate(805.63 522.37) rotate(180)" style="fill:#fff"></rect><rect x="390.27" y="259.51" width="3.96" height="3.35" transform="translate(784.51 522.37) rotate(180)" style="fill:#fff"></rect><rect x="379.71" y="270.37" width="3.96" height="3.35" transform="translate(763.39 544.09) rotate(180)" style="fill:#fff"></rect><rect x="400.84" y="281.23" width="3.96" height="3.35" transform="translate(805.63 565.81) rotate(180)" style="fill:#fff"></rect><rect x="390.27" y="281.23" width="3.96" height="3.35" transform="translate(784.51 565.81) rotate(180)" style="fill:#fff"></rect><rect x="390.27" y="292.09" width="3.96" height="3.35" transform="translate(784.51 587.53) rotate(180)" style="fill:#fff"></rect><rect x="379.71" y="292.09" width="3.96" height="3.35" transform="translate(763.39 587.53) rotate(180)" style="fill:#fff"></rect><rect x="390.27" y="302.95" width="3.96" height="3.35" transform="translate(784.51 609.25) rotate(180)" style="fill:#fff"></rect><rect x="379.71" y="302.95" width="3.96" height="3.35" transform="translate(763.39 609.25) rotate(180)" style="fill:#fff"></rect><rect x="379.71" y="313.81" width="3.96" height="3.35" transform="translate(763.39 630.97) rotate(180)" style="fill:#fff"></rect><rect x="390.27" y="324.67" width="3.96" height="3.35" transform="translate(784.51 652.69) rotate(180)" style="fill:#fff"></rect><rect x="360.03" y="259.51" width="3.96" height="3.35" transform="translate(724.01 522.37) rotate(180)" style="fill:#fff"></rect><rect x="338.91" y="259.51" width="3.96" height="3.35" transform="translate(681.77 522.37) rotate(180)" style="fill:#fff"></rect><rect x="360.03" y="270.37" width="3.96" height="3.35" transform="translate(724.01 544.09) rotate(180)" style="fill:#fff"></rect><rect x="349.47" y="270.37" width="3.96" height="3.35" transform="translate(702.89 544.09) rotate(180)" style="fill:#fff"></rect><rect x="338.91" y="281.23" width="3.96" height="3.35" transform="translate(681.77 565.81) rotate(180)" style="fill:#fff"></rect><rect x="360.03" y="292.09" width="3.96" height="3.35" transform="translate(724.01 587.53) rotate(180)" style="fill:#fff"></rect><rect x="349.47" y="292.09" width="3.96" height="3.35" transform="translate(702.89 587.53) rotate(180)" style="fill:#fff"></rect><rect x="349.47" y="302.95" width="3.96" height="3.35" transform="translate(702.89 609.25) rotate(180)" style="fill:#fff"></rect><rect x="338.91" y="302.95" width="3.96" height="3.35" transform="translate(681.77 609.25) rotate(180)" style="fill:#fff"></rect><rect x="349.47" y="313.81" width="3.96" height="3.35" transform="translate(702.89 630.97) rotate(180)" style="fill:#fff"></rect><rect x="338.91" y="313.81" width="3.96" height="3.35" transform="translate(681.77 630.97) rotate(180)" style="fill:#fff"></rect><rect x="338.91" y="324.67" width="3.96" height="3.35" transform="translate(681.77 652.69) rotate(180)" style="fill:#fff"></rect><rect x="349.47" y="335.53" width="3.96" height="3.35" transform="translate(702.89 674.41) rotate(180)" style="fill:#fff"></rect><rect x="293.5" y="286.07" width="42.94" height="94.41" transform="translate(629.94 666.55) rotate(180)" style="fill:#f0f0f0"></rect><rect x="302.43" y="292.09" width="3.96" height="3.35" style="fill:#fff"></rect><rect x="323.55" y="292.09" width="3.96" height="3.35" style="fill:#fff"></rect><rect x="302.43" y="302.95" width="3.96" height="3.35" style="fill:#fff"></rect><rect x="312.99" y="302.95" width="3.96" height="3.35" style="fill:#fff"></rect><rect x="323.55" y="313.81" width="3.96" height="3.35" style="fill:#fff"></rect><rect x="302.43" y="324.67" width="3.96" height="3.35" style="fill:#fff"></rect><rect x="312.99" y="324.67" width="3.96" height="3.35" style="fill:#fff"></rect><rect x="312.99" y="335.53" width="3.96" height="3.35" style="fill:#fff"></rect><rect x="323.55" y="335.53" width="3.96" height="3.35" style="fill:#fff"></rect><rect x="312.99" y="346.39" width="3.96" height="3.35" style="fill:#fff"></rect><rect x="323.55" y="346.39" width="3.96" height="3.35" style="fill:#fff"></rect><rect x="323.55" y="357.25" width="3.96" height="3.35" style="fill:#fff"></rect><rect x="312.99" y="368.11" width="3.96" height="3.35" style="fill:#fff"></rect><rect x="273.84" y="185.22" width="8" height="195.26" rx="2.4" style="fill:#ebebeb"></rect><rect x="293.1" y="126.29" width="125.52" height="54.32" rx="7.25" style="fill:#e0e0e0"></rect><rect x="296.1" y="129.29" width="119.52" height="48.32" rx="4.25" style="fill:#f5f5f5"></rect><path d="M280.34,195.42h-5V131.71a16.8,16.8,0,0,1,16.8-16.79H414.38a2.5,2.5,0,0,1,2.5,2.5h0a2.5,2.5,0,0,1-2.5,2.5H292.14a11.79,11.79,0,0,0-11.8,11.79Z" style="fill:#ebebeb"></path><rect x="355.81" y="117.42" width="2.53" height="11.88" style="fill:#ebebeb"></rect><rect x="301.51" y="117.42" width="2.53" height="11.88" style="fill:#ebebeb"></rect><rect x="410.11" y="117.42" width="2.53" height="11.88" style="fill:#ebebeb"></rect><path d="M322.35,167h-4.43V156.68a4.07,4.07,0,0,0-1.19-2.87l-6.57-6.57,3.13-3.13,6.57,6.57a8.43,8.43,0,0,1,2.49,6Z" style="fill:#e0e0e0"></path><polygon points="308.68 151.73 306.5 139.93 318.3 142.12 308.68 151.73" style="fill:#e0e0e0"></polygon><path d="M387.54,167H392V156.68a4.07,4.07,0,0,1,1.19-2.87l6.57-6.57-3.13-3.13L390,150.68a8.39,8.39,0,0,0-2.49,6Z" style="fill:#e0e0e0"></path><polygon points="401.21 151.73 403.39 139.93 391.6 142.12 401.21 151.73" style="fill:#e0e0e0"></polygon><polygon points="361.74 150.22 354.94 140.33 348.15 150.22 352.73 150.22 352.73 166.93 357.16 166.93 357.16 150.22 361.74 150.22" style="fill:#e0e0e0"></polygon><path d="M43.44,375.67H62.35a3.59,3.59,0,0,1,3.59,3.59v3.91a0,0,0,0,1,0,0H39.84a0,0,0,0,1,0,0v-3.91A3.59,3.59,0,0,1,43.44,375.67Z" style="fill:#e0e0e0"></path><path d="M69.54,375.67H88.45A3.59,3.59,0,0,1,92,379.26v3.91a0,0,0,0,1,0,0H65.94a0,0,0,0,1,0,0v-3.91A3.59,3.59,0,0,1,69.54,375.67Z" style="fill:#f5f5f5"></path><path d="M95.64,375.67h18.91a3.59,3.59,0,0,1,3.59,3.59v3.91a0,0,0,0,1,0,0H92a0,0,0,0,1,0,0v-3.91A3.59,3.59,0,0,1,95.64,375.67Z" style="fill:#e0e0e0"></path><path d="M121.74,375.67h18.91a3.59,3.59,0,0,1,3.59,3.59v3.91a0,0,0,0,1,0,0h-26.1a0,0,0,0,1,0,0v-3.91A3.59,3.59,0,0,1,121.74,375.67Z" style="fill:#f5f5f5"></path><path d="M147.84,375.67h18.91a3.59,3.59,0,0,1,3.59,3.59v3.91a0,0,0,0,1,0,0h-26.1a0,0,0,0,1,0,0v-3.91A3.59,3.59,0,0,1,147.84,375.67Z" style="fill:#e0e0e0"></path><path d="M173.93,375.67h18.91a3.59,3.59,0,0,1,3.59,3.59v3.91a0,0,0,0,1,0,0h-26.1a0,0,0,0,1,0,0v-3.91A3.59,3.59,0,0,1,173.93,375.67Z" style="fill:#f5f5f5"></path><path d="M200,375.67h18.91a3.59,3.59,0,0,1,3.59,3.59v3.91a0,0,0,0,1,0,0h-26.1a0,0,0,0,1,0,0v-3.91A3.59,3.59,0,0,1,200,375.67Z" style="fill:#e0e0e0"></path><path d="M226.13,375.67H245a3.59,3.59,0,0,1,3.59,3.59v3.91a0,0,0,0,1,0,0h-26.1a0,0,0,0,1,0,0v-3.91A3.59,3.59,0,0,1,226.13,375.67Z" style="fill:#f5f5f5"></path><path d="M252.23,375.67h18.91a3.59,3.59,0,0,1,3.59,3.59v3.91a0,0,0,0,1,0,0h-26.1a0,0,0,0,1,0,0v-3.91A3.59,3.59,0,0,1,252.23,375.67Z" style="fill:#e0e0e0"></path><path d="M278.33,375.67h18.91a3.59,3.59,0,0,1,3.59,3.59v3.91a0,0,0,0,1,0,0h-26.1a0,0,0,0,1,0,0v-3.91A3.59,3.59,0,0,1,278.33,375.67Z" style="fill:#f5f5f5"></path><path d="M304.43,375.67h18.91a3.59,3.59,0,0,1,3.59,3.59v3.91a0,0,0,0,1,0,0h-26.1a0,0,0,0,1,0,0v-3.91A3.59,3.59,0,0,1,304.43,375.67Z" style="fill:#e0e0e0"></path><path d="M330.53,375.67h18.91a3.59,3.59,0,0,1,3.59,3.59v3.91a0,0,0,0,1,0,0h-26.1a0,0,0,0,1,0,0v-3.91A3.59,3.59,0,0,1,330.53,375.67Z" style="fill:#f5f5f5"></path><path d="M356.63,375.67h18.91a3.59,3.59,0,0,1,3.59,3.59v3.91a0,0,0,0,1,0,0H353a0,0,0,0,1,0,0v-3.91A3.59,3.59,0,0,1,356.63,375.67Z" style="fill:#e0e0e0"></path><path d="M382.73,375.67h18.91a3.59,3.59,0,0,1,3.59,3.59v3.91a0,0,0,0,1,0,0h-26.1a0,0,0,0,1,0,0v-3.91A3.59,3.59,0,0,1,382.73,375.67Z" style="fill:#f5f5f5"></path><path d="M408.83,375.67h18.91a3.59,3.59,0,0,1,3.59,3.59v3.91a0,0,0,0,1,0,0h-26.1a0,0,0,0,1,0,0v-3.91A3.59,3.59,0,0,1,408.83,375.67Z" style="fill:#e0e0e0"></path><path d="M434.93,375.67h18.91a3.59,3.59,0,0,1,3.59,3.59v3.91a0,0,0,0,1,0,0h-26.1a0,0,0,0,1,0,0v-3.91A3.59,3.59,0,0,1,434.93,375.67Z" style="fill:#f5f5f5"></path><path d="M342.76,105c0,2.55,19.94,0,42.77,0s17.6-14.68,13.69-17c-4.16-2.42-9.57,0-9.57,0s1.85-8.51-5.46-10.18c-6-1.38-9.32,6.36-9.32,6.36s-3.08-5.19-8.57-3.39c-5.7,1.87-3.8,8.56-6.08,10.59S347.7,93,347.7,94.54c0,2.19,8.58,1.7,8.58,3.08,0,2.65-21.62,0-21.62,3.08,0,2.64,19.43-.12,19.43,1.79C354.09,103.87,342.76,103.34,342.76,105Z" style="fill:#f5f5f5"></path><path d="M146.09,121.28c0,3.24,25.27,0,54.2,0s22.3-18.6,17.35-21.49c-5.27-3.07-12.12,0-12.12,0s2.34-10.78-6.93-12.9C190.93,85.15,186.78,95,186.78,95s-3.91-6.59-10.86-4.3c-7.22,2.37-4.81,10.84-7.7,13.42S152.35,106,152.35,108c0,2.77,10.87,2.15,10.87,3.9,0,3.36-27.4,0-27.4,3.91,0,3.34,24.63-.15,24.63,2.27C160.45,119.81,146.09,119.14,146.09,121.28Z" style="fill:#f5f5f5"></path><path d="M73.29,121.69c0,2.32,18.09,0,38.8,0s16-13.31,12.42-15.38c-3.78-2.2-8.68,0-8.68,0s1.68-7.72-5-9.24c-5.48-1.25-8.45,5.78-8.45,5.78s-2.8-4.72-7.77-3.08c-5.17,1.7-3.45,7.76-5.52,9.61s-11.36,1.35-11.36,2.8c0,2,7.79,1.53,7.79,2.78,0,2.41-19.62,0-19.62,2.8,0,2.4,17.64-.1,17.64,1.63C83.58,120.64,73.29,120.16,73.29,121.69Z" style="fill:#f5f5f5"></path></g><g id="freepik--Shadow--inject-431"><ellipse id="freepik--path--inject-431" cx="250" cy="415.69" rx="193.89" ry="11.32" style="fill:#f5f5f5"></ellipse></g><g id="freepik--Crash--inject-431"><polygon points="197.62 343.75 125.22 244.53 207.6 296.87 192.75 160.85 245.44 277.31 276.29 175.79 283.02 281.78 360.4 214.8 311.11 306.63 400.85 279.02 290.97 353.55 248.03 360.69 197.62 343.75" style="fill:#FFC100"></polygon><polygon points="197.62 343.75 125.22 244.53 207.6 296.87 192.75 160.85 245.44 277.31 276.29 175.79 283.02 281.78 360.4 214.8 311.11 306.63 400.85 279.02 290.97 353.55 248.03 360.69 197.62 343.75" style="fill:#fff;opacity:0.6000000000000001"></polygon><polygon points="293.43 321.16 330.43 252.24 275.45 299.83 270.65 224.25 247.04 301.94 207.31 214.13 218.21 313.92 159.31 276.5 203.02 336.38 248.74 351.75 287.66 345.29 347.96 304.39 293.43 321.16" style="fill:#FFC100"></polygon></g><g id="freepik--car-2--inject-431"><path d="M438.33,332.31h10.92a.93.93,0,0,1,.93.93v.52a.93.93,0,0,1-.93.93h-8.63a2.3,2.3,0,0,1-2.3-2.3v-.09A0,0,0,0,1,438.33,332.31Z" transform="translate(-79.53 148.47) rotate(-17.44)" style="fill:#263238"></path><polygon points="261.21 391.23 307.07 379.08 297.14 364.85 278.43 358.49 268.1 361.74 260.12 372.93 260.23 384.52 261.21 391.23" style="fill:#263238"></polygon><polygon points="385.53 354.43 428.63 338.63 430.71 334.73 425.26 325.17 408.33 318.44 393.69 320.86 383.48 337.16 383.57 351.82 385.53 354.43" style="fill:#263238"></polygon><polygon points="261.21 391.23 307.07 379.08 297.14 364.85 278.43 358.49 268.1 361.74 260.12 372.93 260.23 384.52 261.21 391.23"></polygon><polygon points="385.53 354.43 428.63 338.63 430.71 334.73 425.26 325.17 408.33 318.44 393.69 320.86 383.48 337.16 383.57 351.82 385.53 354.43"></polygon><polygon points="247.42 373.3 253.53 381.57 254.46 390.1 253.11 398.6 255.16 397.95 259.87 393.74 258.24 378.2 252.22 371.8 247.42 373.3" style="fill:#FFC100"></polygon><polygon points="247.42 373.3 253.53 381.57 254.46 390.1 253.11 398.6 255.16 397.95 259.87 393.74 258.24 378.2 252.22 371.8 247.42 373.3" style="opacity:0.6000000000000001"></polygon><path d="M442.18,317.06l-9.4-9.2a15.13,15.13,0,0,0-7.44-4L390.43,284a38.94,38.94,0,0,0-31-3.31l-49.73,15.62a22.27,22.27,0,0,0-14.09,13.22l-9.14,23.69-23,9.75a29.32,29.32,0,0,0-17.87,27.17l1.76,3.19,8.32,4.93L257,389.31l-1.8,8.64,5.65-1.77a4.07,4.07,0,0,0,2.6-5.26c-.18-.48-.34-1-.48-1.48a20.69,20.69,0,0,1,39.65-11.79v.05A5.09,5.09,0,0,0,309,381l76.83-24.13a4.94,4.94,0,0,0,3.26-6.21q-.13-.4-.24-.81a20.68,20.68,0,0,1,39.64-11.79c.06.18.1.35.15.53l13.25-4.16a6,6,0,0,0,4.21-5.42l0-.66a6.86,6.86,0,0,0-.31-2.46l-1.89-6A6.89,6.89,0,0,0,442.18,317.06Z" style="fill:#FFC100"></path><path d="M442.18,317.06l-9.4-9.2a15.13,15.13,0,0,0-7.44-4L390.43,284a38.94,38.94,0,0,0-31-3.31l-49.73,15.62a22.27,22.27,0,0,0-14.09,13.22l-9.14,23.69-23,9.75a29.32,29.32,0,0,0-17.87,27.17l1.76,3.19,8.32,4.93L257,389.31l-1.8,8.64,5.65-1.77a4.07,4.07,0,0,0,2.6-5.26c-.18-.48-.34-1-.48-1.48a20.69,20.69,0,0,1,39.65-11.79v.05A5.09,5.09,0,0,0,309,381l76.83-24.13a4.94,4.94,0,0,0,3.26-6.21q-.13-.4-.24-.81a20.68,20.68,0,0,1,39.64-11.79c.06.18.1.35.15.53l13.25-4.16a6,6,0,0,0,4.21-5.42l0-.66a6.86,6.86,0,0,0-.31-2.46l-1.89-6A6.89,6.89,0,0,0,442.18,317.06Z" style="opacity:0.30000000000000004"></path><g style="opacity:0.2"><path d="M306.71,376.36h0a1.09,1.09,0,0,1-1.34-.69,23.77,23.77,0,0,0-29.43-14.53,23.43,23.43,0,0,0-5.34,2.43,4.32,4.32,0,0,1-4.82-.15c0,.51.13,1.2.21,1.68.29,1.83.62,3.9-1,4.46-1.26.44-2-.81-2.55-1.79a20.2,20.2,0,0,0,.85,4.22,1.08,1.08,0,0,1-.69,1.33h0a1.07,1.07,0,0,1-1.38-.7c-1-3.3-1.61-7,.36-7.84,1.12-.5,1.88.47,2.41,1.36,0-.26-.08-.5-.11-.71-.28-1.8-.61-3.86,1-4.48a2,2,0,0,1,2.08.61,2.19,2.19,0,0,0,2.58.17,26.54,26.54,0,0,1,5.81-2.65,25.94,25.94,0,0,1,32.11,15.86A1.1,1.1,0,0,1,306.71,376.36ZM265.21,363Z" style="fill:#fff"></path></g><path d="M245.66,370.11h0l2.68,1.45s7-22.54,17.87-27.17l23-9.75-2.67-1.45-23,9.75A29.32,29.32,0,0,0,245.66,370.11Z" style="opacity:0.6000000000000001"></path><path d="M233.3,335.37h0l1.19,2.8S254,324.85,265.37,328l24.06,6.65-1.19-2.81-24.06-6.64A29.32,29.32,0,0,0,233.3,335.37Z" style="fill:#FFC100"></path><path d="M233.3,335.37h0l1.19,2.8S254,324.85,265.37,328l24.06,6.65-1.19-2.81-24.06-6.64A29.32,29.32,0,0,0,233.3,335.37Z" style="opacity:0.30000000000000004"></path><path d="M259.33,363.06c.91,2.9.51,5.6-.9,6s-3.28-1.54-4.19-4.43-.5-5.6.9-6S258.43,360.17,259.33,363.06Z" style="opacity:0.6000000000000001"></path><path d="M255.61,358.58a2.7,2.7,0,0,0-.87,1.68l1.69.91.3,1.82,1.54,1.65-2-1.27-.56-1.8-1.11-.05a10,10,0,0,0,.48,2.87c.81,2.58,2.39,4.43,3.73,4.49,1.06-.81,1.3-3.23.48-5.82S256.94,358.63,255.61,358.58Z" style="fill:#fff;opacity:0.5"></path><rect x="431.7" y="323.11" width="16.76" height="5.8" rx="2.33" transform="translate(-77.48 146.88) rotate(-17.44)" style="fill:#263238"></rect><rect x="431.7" y="323.11" width="16.76" height="5.8" rx="2.33" transform="translate(-77.48 146.88) rotate(-17.44)" style="fill:#fff;opacity:0.4"></rect><g style="opacity:0.2"><path d="M384.21,347.74h0a1.07,1.07,0,0,1-1.21-1,25.9,25.9,0,0,1,47.79-16.14,1.07,1.07,0,0,1-.4,1.47h0a1.07,1.07,0,0,1-1.44-.39,23.75,23.75,0,0,0-43.79,14.84A1.06,1.06,0,0,1,384.21,347.74Z" style="fill:#fff"></path></g><path d="M360.43,314.48l37.21-11.69a2.34,2.34,0,0,0,.46-4.26l-12.51-7.13a29.6,29.6,0,0,0-23.54-2.52l-10.16,3.19a2.33,2.33,0,0,0-1.47,3.09l7.14,18A2.33,2.33,0,0,0,360.43,314.48Z" style="fill:#263238"></path><path d="M341.89,295.21l-29.56,9.29a12.91,12.91,0,0,0-8.19,7.68l-7,18.22a2.34,2.34,0,0,0,2.88,3.07l49.07-15.42a2.34,2.34,0,0,0,1.53-2.93l-5.77-18.38A2.35,2.35,0,0,0,341.89,295.21Z" style="fill:#263238"></path><path d="M296.39,341.68l1.28,2.3-.47,3.66,1.63,2.62-.89,5.72,9.58,15.4a4.86,4.86,0,0,0,5.59,2.07l50.31-15.8a4.1,4.1,0,0,0,2.68-5.14l-9.38-29.86a4.09,4.09,0,0,0-5.09-2.69l-52.92,16A4,4,0,0,0,296.39,341.68Z" style="opacity:0.2"></path><polygon points="260 355.82 270.41 346.52 290.89 340.09 269.98 349.67 260 355.82" style="fill:#fff;opacity:0.2"></polygon><polygon points="269.09 354.34 281.07 352.7 294.05 350.14 281.96 355.56 269.09 354.34" style="fill:#fff;opacity:0.2"></polygon><polygon points="263.21 356.19 271.13 357.84 267.25 359.06 263.21 356.19" style="opacity:0.2"></polygon><path d="M302.84,341.25l-3.14,2.09,3.51.79a.94.94,0,0,0,.89-1.56Z" style="opacity:0.30000000000000004"></path><path d="M300.26,349.82l3.52-1.88a.7.7,0,0,1,1,.86l-.44,1.16,1.38,2.71a.7.7,0,0,1-1.07.85Z" style="opacity:0.30000000000000004"></path><path d="M355.45,322.82c.24.76-.71,1.74-2.13,2.18s-8.93,2.13-9.17,1.37,6.88-3.68,8.3-4.12S355.22,322.06,355.45,322.82Z" style="fill:#263238"></path><path d="M355.45,322.82c.24.76-.71,1.74-2.13,2.18s-8.93,2.13-9.17,1.37,6.88-3.68,8.3-4.12S355.22,322.06,355.45,322.82Z" style="fill:#fff;opacity:0.4"></path><path d="M299.26,311.26a3,3,0,0,0-2-4.06l-.48-.13a22.3,22.3,0,0,0-1.11,2.43l-8.39,21.75,1.23.34a3,3,0,0,0,3.63-1.82l7.13-18.48Z" style="fill:#263238"></path><polygon points="291.94 325.9 290.66 323.85 293.5 323.59 291.14 322.96 294.99 319.23 292.07 321.15 295.4 317.16 294.4 316.97 297.1 313.8 293.31 317.31 294 317.66 291.73 319.65 288.86 327.09 289.75 329.91 289.4 326.63 290.58 325.19 291.49 326.48 291.99 328.08 291.94 325.9" style="fill:#fff;opacity:0.2"></polygon><path d="M430.49,312.29l5,5.22a2.7,2.7,0,0,1-1.13,4.45l-1.35.43-9.21-9.57,3.91-1.23A2.68,2.68,0,0,1,430.49,312.29Z" style="opacity:0.4"></path><polygon points="429.94 319.17 435.45 317.44 432.26 314.12 426.75 315.85 429.94 319.17" style="fill:#fff;opacity:0.4"></polygon><path d="M360.57,321.44l1.31,4.17a1.82,1.82,0,0,0,2.28,1.19L413,311.47a3.4,3.4,0,0,0,2.38-2.69,3.18,3.18,0,0,0-1.61-3.25l-3.32-1.89A7.87,7.87,0,0,0,404,303l-40.83,13.33A4.1,4.1,0,0,0,360.57,321.44Z" style="opacity:0.2"></path><polygon points="301.25 329.81 301.05 326.36 304.91 326.95 302.92 323.07 313.65 325.53 310.36 324.03 313.14 322.12 308.6 323.24 303.82 321.1 304.98 318.61 312.02 317.96 311.47 316.19 315.39 316.08 310.45 314.74 310.65 317.19 306.2 316.21 310.5 310.72 302.48 316.49 302.48 316.49 298.69 326.3 301.25 329.81" style="fill:#fff;opacity:0.2"></polygon><circle cx="408.75" cy="344.3" r="17.24" transform="translate(-114.23 234.24) rotate(-28.22)" style="fill:#263238"></circle><circle cx="408.75" cy="344.3" r="10.96" transform="matrix(0.43, -0.9, 0.9, 0.43, -78.61, 563.61)" style="fill:#fff;opacity:0.5"></circle><path d="M411.18,343.54a2.55,2.55,0,1,1-3.19-1.67A2.54,2.54,0,0,1,411.18,343.54Z" style="fill:#263238"></path><g style="opacity:0.4"><path d="M405.36,339.65l-.28-4.19a9.5,9.5,0,0,0-4.39,3.67l4.08,1A7.08,7.08,0,0,1,405.36,339.65Z"></path><path d="M404.6,348.28a7.08,7.08,0,0,1-.5-.59l-4.19.28a9.5,9.5,0,0,0,3.67,4.39Z"></path><path d="M408.63,350.05a6.48,6.48,0,0,1-.77-.07l-2.77,3.17a9.47,9.47,0,0,0,5.71.5Z"></path><path d="M403,344.18a6.48,6.48,0,0,1,.07-.77l-3.17-2.77a9.47,9.47,0,0,0-.5,5.71Z"></path><path d="M414.5,344.42a6.48,6.48,0,0,1-.07.77L417.6,348a9.47,9.47,0,0,0,.5-5.71Z"></path><path d="M412.9,340.32a7.08,7.08,0,0,1,.5.59l4.19-.28a9.5,9.5,0,0,0-3.67-4.39Z"></path><path d="M412.73,348.45a7.08,7.08,0,0,1-.59.5l.28,4.19a9.5,9.5,0,0,0,4.39-3.67Z"></path><path d="M409.64,338.62l2.77-3.17a9.47,9.47,0,0,0-5.71-.5l2.17,3.6A6.48,6.48,0,0,1,409.64,338.62Z"></path></g><path d="M410.15,343.86a1.47,1.47,0,0,1-2.8.88c-.24-.77.62-.23,1.39-.47S409.91,343.09,410.15,343.86Z" style="fill:#fff;opacity:0.5"></path><ellipse cx="281.01" cy="384.43" rx="15.09" ry="17.24" transform="translate(-102.3 101.9) rotate(-17.44)" style="fill:#263238"></ellipse><path d="M290.17,381.55c1.81,5.78-.82,11.75-5.87,13.33s-10.63-1.8-12.44-7.57.81-11.75,5.87-13.34S288.36,375.78,290.17,381.55Z" style="fill:#fff;opacity:0.5"></path><path d="M283.14,383.76a2.25,2.25,0,1,1-2.89-1.76A2.41,2.41,0,0,1,283.14,383.76Z" style="fill:#263238"></path><g style="opacity:0.4"><path d="M277.84,379.71l-.4-4.16a7.84,7.84,0,0,0-3.76,3.48l3.66,1.15A5.56,5.56,0,0,1,277.84,379.71Z"></path><path d="M277.47,388.21a7.09,7.09,0,0,1-.46-.59l-3.71.12a10.28,10.28,0,0,0,3.42,4.48Z"></path><path d="M281.11,390.11a5.06,5.06,0,0,1-.68-.09l-2.35,3a7.85,7.85,0,0,0,5.08.7Z"></path><path d="M275.91,384.1q0-.37,0-.75L273,380.5a10.33,10.33,0,0,0-.24,5.62Z"></path><path d="M286.12,384.76a6.28,6.28,0,0,1,0,.75l2.91,2.85a10.24,10.24,0,0,0,.25-5.62Z"></path><path d="M284.56,380.64a6.7,6.7,0,0,1,.45.6l3.72-.13a10.3,10.3,0,0,0-3.42-4.47Z"></path><path d="M284.69,388.68c-.16.16-.33.32-.5.46l.39,4.16a7.8,7.8,0,0,0,3.77-3.47Z"></path><path d="M281.6,378.84l2.35-3a7.85,7.85,0,0,0-5.08-.7l2.05,3.64A5.28,5.28,0,0,1,281.6,378.84Z"></path></g><path d="M282.24,384a1.3,1.3,0,1,1-2.45.77c-.24-.77.54-.2,1.21-.41S282,383.27,282.24,384Z" style="fill:#fff;opacity:0.5"></path><path d="M398.54,297.75,386,290.62a30.64,30.64,0,0,0-24.25-2.6l-10.16,3.19a3.25,3.25,0,0,0-2,4.29l7.15,17.95a3.25,3.25,0,0,0,4,1.89l37.21-11.69a3.23,3.23,0,0,0,.63-5.9Zm-.17,3a1.38,1.38,0,0,1-1,1.22l-37.22,11.69a1.44,1.44,0,0,1-1.77-.84l-7.14-17.95a1.44,1.44,0,0,1,0-1.15,1.41,1.41,0,0,1,.87-.75l10.16-3.2a28.81,28.81,0,0,1,22.82,2.45l12.52,7.13A1.39,1.39,0,0,1,398.37,300.71Z" style="fill:#263238"></path><path d="M341.62,294.36l-29.56,9.28a13.73,13.73,0,0,0-8.75,8.21l-7,18.22a3.23,3.23,0,0,0,4,4.25l49.07-15.41a3.25,3.25,0,0,0,2.12-4.06l-5.78-18.38A3.22,3.22,0,0,0,341.62,294.36Zm-43.38,37.86a1.42,1.42,0,0,1-.29-1.5l7-18.22a11.94,11.94,0,0,1,7.62-7.14l.95-.3,6.64,21.12-20.47,6.43A1.42,1.42,0,0,1,298.24,332.22Zm51.49-16.83a1.43,1.43,0,0,1-.94,1.8l-27.69,8.7-6.63-21.12,27.69-8.7a1.43,1.43,0,0,1,1.8.94Z" style="fill:#263238"></path><g style="opacity:0.6000000000000001"><path d="M398.54,297.75,386,290.62a30.64,30.64,0,0,0-24.25-2.6l-10.16,3.19a3.25,3.25,0,0,0-2,4.29l7.15,17.95a3.25,3.25,0,0,0,4,1.89l37.21-11.69a3.23,3.23,0,0,0,.63-5.9Zm-.17,3a1.38,1.38,0,0,1-1,1.22l-37.22,11.69a1.44,1.44,0,0,1-1.77-.84l-7.14-17.95a1.44,1.44,0,0,1,0-1.15,1.41,1.41,0,0,1,.87-.75l10.16-3.2a28.81,28.81,0,0,1,22.82,2.45l12.52,7.13A1.39,1.39,0,0,1,398.37,300.71Z"></path><path d="M341.62,294.36l-29.56,9.28a13.73,13.73,0,0,0-8.75,8.21l-7,18.22a3.23,3.23,0,0,0,4,4.25l49.07-15.41a3.25,3.25,0,0,0,2.12-4.06l-5.78-18.38A3.22,3.22,0,0,0,341.62,294.36Zm-43.38,37.86a1.42,1.42,0,0,1-.29-1.5l7-18.22a11.94,11.94,0,0,1,7.62-7.14l.95-.3,6.64,21.12-20.47,6.43A1.42,1.42,0,0,1,298.24,332.22Zm51.49-16.83a1.43,1.43,0,0,1-.94,1.8l-27.69,8.7-6.63-21.12,27.69-8.7a1.43,1.43,0,0,1,1.8.94Z"></path></g><polygon points="253.94 368.7 258.5 373.04 258.24 378.2 253.94 368.7" style="opacity:0.2"></polygon><polygon points="268.4 330.07 273.47 320.01 269.57 317.71 268.89 318.09 265.8 329.01 267.72 330.46 268.4 330.07" style="fill:#FFC100"></polygon><polygon points="268.89 318.09 272.79 320.4 267.72 330.46 265.8 329.02 268.89 318.09" style="fill:#FFC100"></polygon><polygon points="268.89 318.09 272.79 320.4 267.72 330.46 265.8 329.02 268.89 318.09" style="opacity:0.30000000000000004"></polygon><polygon points="257.32 315.11 257.44 305.87 261.47 304.48 261.85 304.9 259.81 314.59 257.69 315.53 257.32 315.11" style="fill:#FFC100"></polygon><polygon points="261.85 304.9 257.82 306.29 257.69 315.53 259.81 314.59 261.85 304.9" style="fill:#FFC100"></polygon><polygon points="261.85 304.9 257.82 306.29 257.69 315.53 259.81 314.59 261.85 304.9" style="opacity:0.30000000000000004"></polygon></g><g id="freepik--car-1--inject-431"><path d="M57.75,357l9.33,9,35.61,11.18L130.08,383a3.35,3.35,0,0,0,2.72-.62l.16-.11a3.34,3.34,0,0,1,2.63-.63l37.67,6.86a3,3,0,0,1,1.74,1l3.62,4.21a2.94,2.94,0,0,0,1.74,1l23,4.2,41.1-1.29a2,2,0,0,0,1.95-2l.08-9.67-1.28-18.21-46.19-9.35-25.62,19.59L124.32,368,105,340.16l-34.32-5L60.1,349.76Z" style="fill:#263238"></path><path d="M57.75,357l9.33,9,35.61,11.18L130.08,383a3.35,3.35,0,0,0,2.72-.62l.16-.11a3.34,3.34,0,0,1,2.63-.63l37.67,6.86a3,3,0,0,1,1.74,1l3.62,4.21a2.94,2.94,0,0,0,1.74,1l23,4.2,41.1-1.29a2,2,0,0,0,1.95-2l.08-9.67-1.28-18.21-46.19-9.35-25.62,19.59L124.32,368,105,340.16l-34.32-5L60.1,349.76Z" style="opacity:0.6000000000000001"></path><path d="M257,350.19l-2.86-.94s-1.79-3.55-2.9-4.15c-1.62-.87-5.71.61-7.35-.22-1.45-.73-2.58-4.46-4.09-5.07-1.81-.72-5.91,1.71-7.71,1-.83-.34-1.42-2.54-2.28-2.79-1.23-.35-4.84,1.62-4.84,1.62l-24.38-8.05s-1.75-6.5-2.63-8.56c-1-2.32-3.67-6.66-4.31-9.09-.42-1.58-.22-4.88-.47-6.49a47.4,47.4,0,0,0-1.56-5.09,8.28,8.28,0,0,0-4.93-5.3L182,295.21a165.76,165.76,0,0,0-30.11-8.49L81.76,274a3.93,3.93,0,0,0-4.4,2.55L64.22,313.67a3.13,3.13,0,0,0-.16.6l-7.67,42.09a1.5,1.5,0,0,0,1.21,1.74,1.49,1.49,0,0,0,1.5-.64l8.64-12.77a9.93,9.93,0,0,1,10.5-5l22,4a9.94,9.94,0,0,1,7.83,7.28l5.16,19.78a4.28,4.28,0,0,0,3.37,3.12l70.87,12.9a4.28,4.28,0,0,0,4.25-1.73l11.8-16.7a9.94,9.94,0,0,1,9.9-4l22,4a9.92,9.92,0,0,1,8.06,8.39l2.14,15.19a.91.91,0,0,0,1.8,0s1.8-23.22,4-30.6C252.4,358.35,257,350.19,257,350.19Z" style="fill:#FFC100"></path><path d="M257,350.19l-2.86-.94s-1.79-3.55-2.9-4.15c-1.62-.87-5.71.61-7.35-.22-1.45-.73-2.58-4.46-4.09-5.07-1.81-.72-5.91,1.71-7.71,1-.83-.34-1.42-2.54-2.28-2.79-1.23-.35-4.84,1.62-4.84,1.62l-24.38-8.05s-1.75-6.5-2.63-8.56c-1-2.32-3.67-6.66-4.31-9.09-.42-1.58-.22-4.88-.47-6.49a47.4,47.4,0,0,0-1.56-5.09,8.28,8.28,0,0,0-4.93-5.3L182,295.21a165.76,165.76,0,0,0-30.11-8.49L81.76,274a3.93,3.93,0,0,0-4.4,2.55L64.22,313.67a3.13,3.13,0,0,0-.16.6l-7.67,42.09a1.5,1.5,0,0,0,1.21,1.74,1.49,1.49,0,0,0,1.5-.64l8.64-12.77a9.93,9.93,0,0,1,10.5-5l22,4a9.94,9.94,0,0,1,7.83,7.28l5.16,19.78a4.28,4.28,0,0,0,3.37,3.12l70.87,12.9a4.28,4.28,0,0,0,4.25-1.73l11.8-16.7a9.94,9.94,0,0,1,9.9-4l22,4a9.92,9.92,0,0,1,8.06,8.39l2.14,15.19a.91.91,0,0,0,1.8,0s1.8-23.22,4-30.6C252.4,358.35,257,350.19,257,350.19Z" style="fill:#fff;opacity:0.5"></path><path d="M210.88,357.76l10.78-13.88a1.22,1.22,0,0,1,2.18.87l-.5,5a1.69,1.69,0,0,0,3,1.16l4.44-6.12a1.22,1.22,0,0,1,2.2.61l.72,9a1.69,1.69,0,0,0,3,.87l4.53-6.16a1.22,1.22,0,0,1,2.19.88l-1.38,10.8,1.45,9.25-20.11-7.84-13.28-.54Z" style="opacity:0.2"></path><path d="M250.17,353.63s-3.77,3.43-4.52,4.93c-.44.89-1.51,3.33-.71,3.94s3.19-1.18,3.92-2c1.1-1.26,2.2-6.33,2.2-6.33A.53.53,0,0,0,250.17,353.63Z" style="opacity:0.2"></path><path d="M214.84,343.59l-10.69,3.19a.58.58,0,0,0-.39.36l-2.31,5.76a.61.61,0,0,0,.88.75l10.31-6a.81.81,0,0,0,.14-.12l2.69-3A.61.61,0,0,0,214.84,343.59Z" style="opacity:0.2"></path><path d="M80.43,276.62A8,8,0,0,0,85.61,280l103.9,18.91a8.4,8.4,0,0,0-2.82-1.84L182,295.21a165.76,165.76,0,0,0-30.11-8.49L81.76,274a3.91,3.91,0,0,0-2.79.55Z" style="fill:#FFC100"></path><rect x="82.41" y="287.03" width="40.23" height="27.57" rx="2.82" transform="translate(55.54 -13.5) rotate(10.32)" style="fill:#263238"></rect><path d="M187.19,330.23l-52-9.47a2.31,2.31,0,0,1-1.87-2.69l4.11-22.56a2.32,2.32,0,0,1,2.69-1.87l42.09,7.66a2.34,2.34,0,0,1,1.84,1.75s.86,3,1,4.07c.2,1.89-.15,5.73.26,7.58.49,2.2,2.76,6.17,3.54,8.29.38,1.07,1,4.43,1,4.43A2.31,2.31,0,0,1,187.19,330.23Z" style="fill:#263238"></path><path d="M186.22,317.33a15.79,15.79,0,0,1-1-2.63,47.92,47.92,0,0,1-.2-6.61l-5.12-5.52,3.46,6.27L170,300.76l12,11.17-10.45,0L164.76,309l-8.39.15,8.15,1.17,7,3.57,4.85.36L172,318.06l-4.78.38-3.84,3.9,4.59-2.82,4.7,0,6.41-4.79,3.14.57-5,5.47L172,323.91l9.45-3.09-1.52-.27,3.85-3.9-2,8.52Z" style="fill:#fff;opacity:0.2"></path><rect x="66.95" y="326.05" width="129.81" height="2.33" rx="1.12" transform="translate(60.74 -18.32) rotate(10.32)" style="fill:#fff;opacity:0.30000000000000004"></rect><rect x="118.27" y="357.79" width="68.23" height="2.33" rx="1.12" transform="translate(66.76 -21.49) rotate(10.32)" style="fill:#fff;opacity:0.30000000000000004"></rect><rect x="131.54" y="332.16" width="8.57" height="2.33" rx="1.12" transform="translate(61.9 -18.94) rotate(10.32)" style="fill:#FFC100"></rect><path d="M190.6,330.37l1.15-6.36a1.56,1.56,0,0,0-1.25-1.82l-2.5-.45a2.55,2.55,0,0,0-3,2.05l-1.3,7.13a2.55,2.55,0,0,0,2,3l3.43.63,1,1.48,1.45.27.62-3.42Z" style="fill:#FFC100"></path><circle cx="84.54" cy="371.72" r="21.4" transform="translate(-282.29 268) rotate(-61.4)" style="fill:#263238"></circle><path d="M97.22,375.61a14.49,14.49,0,0,0,.38-1.51,13.9,13.9,0,0,0,.18-1.55L93,371a8.4,8.4,0,0,0-.44-2.06l3.73-3.41A13.73,13.73,0,0,0,94.49,363L90,365.24a8.41,8.41,0,0,0-1.77-1.15l.22-5a10.76,10.76,0,0,0-1.51-.38,13.63,13.63,0,0,0-1.55-.18l-1.56,4.8a8.4,8.4,0,0,0-2.07.45L78.33,360a13.59,13.59,0,0,0-2.56,1.77l2.29,4.5a8.44,8.44,0,0,0-1.14,1.78l-5-.23a15.35,15.35,0,0,0-.38,1.52,13.46,13.46,0,0,0-.18,1.54l4.81,1.57a8.48,8.48,0,0,0,.44,2.07l-3.73,3.41a13.52,13.52,0,0,0,1.77,2.55l4.5-2.28a8.7,8.7,0,0,0,1.78,1.14l-.22,5a12.33,12.33,0,0,0,1.51.37,13.77,13.77,0,0,0,1.54.19l1.57-4.81a8.38,8.38,0,0,0,2.07-.44l3.41,3.72a12.78,12.78,0,0,0,2.55-1.77L91,377.16a8.19,8.19,0,0,0,1.14-1.78Z" style="fill:#fff;opacity:0.4"></path><path d="M87.25,356.84a15.13,15.13,0,1,0,12.18,17.59A15.12,15.12,0,0,0,87.25,356.84Zm-5.08,27.93A13.26,13.26,0,1,1,97.6,374.1,13.26,13.26,0,0,1,82.17,384.77Z" style="fill:#fff;opacity:0.6000000000000001"></path><path d="M91.48,373a7.05,7.05,0,1,1-5.67-8.21A7,7,0,0,1,91.48,373Z" style="fill:#fff;opacity:0.6000000000000001"></path><path d="M88.13,372.37a3.64,3.64,0,1,1-2.93-4.23A3.64,3.64,0,0,1,88.13,372.37Z" style="fill:#fff;opacity:0.5"></path><path d="M208.19,338.59l6.82,1.84a.68.68,0,0,1,0,1.33l-6,1.2a.69.69,0,0,1-.8-.5l-.78-3A.69.69,0,0,1,208.19,338.59Z" style="opacity:0.2"></path><path d="M249.62,371.27A17.32,17.32,0,0,0,236.78,361l-22-4a17.41,17.41,0,0,0-17.27,7.06L184.12,383l-63-11.47-5.84-22.42a17.35,17.35,0,0,0-13.68-12.69l-22-4a17.34,17.34,0,0,0-18.33,8.75h0a2.26,2.26,0,0,1-2.38,1.14l-2-.37a2.39,2.39,0,0,0-2.77,1.92l-1.57,8.66a2.39,2.39,0,0,0,.87,2.3l3.13,2.45a1.5,1.5,0,0,0,1.1.86,1.49,1.49,0,0,0,1.5-.64l8.64-12.77a9.93,9.93,0,0,1,10.5-5l22,4a9.94,9.94,0,0,1,7.83,7.28l5.16,19.78a4.28,4.28,0,0,0,3.37,3.12l70.87,12.9a4.28,4.28,0,0,0,4.25-1.73l11.8-16.7a9.94,9.94,0,0,1,9.9-4l22,4a9.92,9.92,0,0,1,8.06,8.39l2.14,15.19a.91.91,0,0,0,1.8,0S248.33,380.61,249.62,371.27Z" style="fill:#FFC100"></path><path d="M227.82,369.6s2.48.73,3.21-.13c0,0,4,5.23,6.34,5.92,0,0,2.9,7.06,4.15,7.71,0,0-.28,6.38,1.24,7.8,0,0-3.14,5-3.4,8.53,0,0-1.11-.1-1.15,2.09,0,0-.59-1.51-1.81-1.79l.34-6.21,1.59-6.4-.37-2.58-4.24-7.46L230,373.27Z" style="fill:#263238"></path><path d="M227.82,369.6s2.48.73,3.21-.13c0,0,4,5.23,6.34,5.92,0,0,2.9,7.06,4.15,7.71,0,0-.28,6.38,1.24,7.8,0,0-3.14,5-3.4,8.53,0,0-1.11-.1-1.15,2.09,0,0-.59-1.51-1.81-1.79l.34-6.21,1.59-6.4-.37-2.58-4.24-7.46L230,373.27Z" style="fill:#fff;opacity:0.4"></path><circle cx="219.49" cy="389.12" r="21.4" transform="translate(-223.66 445.77) rotate(-67.86)" style="fill:#263238"></circle><path d="M233.48,388.86c-.13-8.35-6.58-15-14.39-14.89s-14,7-13.9,15.35,6.58,15,14.39,14.9S233.62,397.22,233.48,388.86Zm-13.93,13.5c-6.85.11-12.5-5.74-12.62-13.07s5.34-13.35,12.19-13.46,12.5,5.73,12.62,13.06S226.4,402.25,219.55,402.36Z" style="fill:#fff;opacity:0.6000000000000001"></path><path d="M231.67,390.45a13.47,13.47,0,0,0,.07-1.56,13.14,13.14,0,0,0-.12-1.55l-4.69-.61a8.49,8.49,0,0,0-.79-1.94l2.8-4.07a13,13,0,0,0-2.1-2.16l-3.71,3.12a7.49,7.49,0,0,0-1.84-.78l-.71-5a11.8,11.8,0,0,0-1.46-.07,9.89,9.89,0,0,0-1.45.12l-.56,5a7.82,7.82,0,0,0-1.81.83l-3.81-3a13.4,13.4,0,0,0-2,2.23l2.92,4a8.92,8.92,0,0,0-.72,2l-4.67.76a12.79,12.79,0,0,0,.05,3.11l4.69.6a8.49,8.49,0,0,0,.79,1.94l-2.79,4.07a12.22,12.22,0,0,0,2.09,2.16l3.71-3.11a7.49,7.49,0,0,0,1.84.78l.72,5a11.64,11.64,0,0,0,1.45.08,13.72,13.72,0,0,0,1.45-.12l.56-5a7.46,7.46,0,0,0,1.81-.84l3.81,3a12.27,12.27,0,0,0,2-2.23l-2.92-4a8.57,8.57,0,0,0,.72-2Z" style="fill:#fff;opacity:0.4"></path><path d="M227.1,369.13a7.82,7.82,0,0,1,.59,5.14s6.76-.45,6,6.56c0,0,8.15,5.18,2.27,10,0,0,1.73,6.59-1.81,9.92a7.34,7.34,0,0,1,3.35,0,21.4,21.4,0,0,0-10.36-31.61Z" style="fill:#fff;opacity:0.30000000000000004"></path><path d="M228.46,369.71a19.65,19.65,0,0,0,3.95,5.42c4.32,4.38,7.29,9.33,5.86,13.71-1.25,3.86-2,9.41-.5,11.4a21.38,21.38,0,0,0-9.31-30.53Z" style="opacity:0.9"></path><path d="M225.93,389a6.61,6.61,0,1,1-6.71-6.94A6.84,6.84,0,0,1,225.93,389Z" style="fill:#fff;opacity:0.6000000000000001"></path><path d="M222.74,389a3.41,3.41,0,1,1-3.46-3.59A3.53,3.53,0,0,1,222.74,389Z" style="fill:#fff;opacity:0.5"></path><polygon points="224.06 331.21 214.8 319.51 208.94 322.31 208.94 323.29 220.78 333.38 224.06 332.19 224.06 331.21" style="fill:#FFC100"></polygon><polygon points="208.94 323.29 214.8 320.48 224.06 332.19 220.78 333.38 208.94 323.29" style="fill:#FFC100"></polygon><polygon points="208.94 323.29 214.8 320.48 224.06 332.19 220.78 333.38 208.94 323.29" style="fill:#fff;opacity:0.6000000000000001"></polygon><polygon points="205.67 326.03 204.4 317.13 200.49 316.78 200.19 317.29 203.29 326.14 205.37 326.54 205.67 326.03" style="fill:#FFC100"></polygon><polygon points="200.19 317.29 204.1 317.64 205.37 326.54 203.29 326.14 200.19 317.29" style="fill:#FFC100"></polygon><polygon points="200.19 317.29 204.1 317.64 205.37 326.54 203.29 326.14 200.19 317.29" style="fill:#fff;opacity:0.6000000000000001"></polygon><polygon points="239.06 326.05 254.12 319.79 252.66 312.99 251.61 312.72 237.6 322.07 238 325.77 239.06 326.05" style="fill:#FFC100"></polygon><polygon points="251.61 312.72 253.07 319.52 238 325.77 237.6 322.07 251.61 312.72" style="fill:#FFC100"></polygon><polygon points="251.61 312.72 253.07 319.52 238 325.77 237.6 322.07 251.61 312.72" style="fill:#fff;opacity:0.4"></polygon><polygon points="233.13 293.02 230.55 284.34 226.65 284.64 226.43 285.2 230.81 293.53 232.91 293.58 233.13 293.02" style="fill:#FFC100"></polygon><polygon points="226.43 285.2 230.33 284.89 232.91 293.58 230.81 293.53 226.43 285.2" style="fill:#FFC100"></polygon><polygon points="226.43 285.2 230.33 284.89 232.91 293.58 230.81 293.53 226.43 285.2" style="fill:#fff;opacity:0.4"></polygon></g></svg>